# xmcd
#
# Track frame offsets:
#	150
#	21510
#	40065
#	56722
#	74702
#	92274
#	111918
#	133162
#	159719
#	170212
#
# Disc length: 2599 seconds
#
# Revision: 1
# Processed by: cddbd v1.5.2PL0 Copyright (c) Steve Scherf et al.
# Submitted via: audiograbber 1.83.01
#
DISCID=930a250a
DTITLE=Mike Bloomfield - Live at McCabe's Guitar Shop 1-1-77
DYEAR=1977
DGENRE=Blues
TTITLE0=Women Lovin' Each Other
TTITLE1=Don't Lie to Me
TTITLE2=Cherry Red
TTITLE3=Hully Gully
TTITLE4=Wings of An Angel (Prisoner's Song)
TTITLE5=Walking the Floor Over You
TTITLE6=Junko Partner
TTITLE7=Knockin' Myself Out
TTITLE8=Prescription for the Blues
TTITLE9=You Must Have Jesus
EXTD=
EXTT0=
EXTT1=
EXTT2=
EXTT3=
EXTT4=
EXTT5=
EXTT6=
EXTT7=
EXTT8=
EXTT9=
PLAYORDER=
